<svg xmlns="http://www.w3.org/2000/svg" width="512px" height="auto" viewBox="48 176 416 159" style="overflow: visible;"
     data-bbox="47.99999999999997 175.60143790966538 416 158.81032804392277">
    <g transform="matrix(0.6892445683479309, 0, 0, 0.6892445683479309, 79.70344543457031, 100.0440444946289)">
        <path d="m87.84 104.85h-7.49v-4.93c0-.84-.68-1.52-1.52-1.52h-12.6c-.84 0-1.52.68-1.52 1.52v4.93h-7.49c-.9 0-1.78.3-2.5.84l-4 3.06h43.6l-4-3.06c-.72-.55-1.59-.84-2.5-.84Z"
              fill="rgba(120,120,120,1)"
              transform="matrix(1.7499735355377197, 0, 0, 1.7499735355377197, 132.0313262939453, 51.99685287475586)"/>
        <g fill="rgba(120,120,120,1)"
           transform="matrix(1.7499735355377197, 0, 0, 1.7499735355377197, 132.0313262939453, 51.99685287475586)">
            <path d="m45.02 80.11c13.02 0 28.03-3.19 42.26-8.97 12.37-5.03 22.94-11.57 30.14-18.52v-10.09c0-5.07-4.11-9.18-9.18-9.18H36.83c-5.07 0-9.18 4.11-9.18 9.18v34.99c4.59 1.69 10.49 2.6 17.37 2.6Z"
                  fill="rgba(120,120,120,1)"/>
            <path d="m84.61 85.22c-14.97 6.09-31 9.44-45.14 9.44-3.97 0-7.67-.26-11.1-.77 1.39 3.3 4.65 5.61 8.46 5.61h71.41c5.07 0 9.18-4.11 9.18-9.18v-25.63c-7.92 7.8-19.34 15.05-32.81 20.53Z"
                  fill="rgba(120,120,120,1)"/>
        </g>
        <g fill="rgba(120,120,120,1)"
           transform="matrix(1.7499735355377197, 0, 0, 1.7499735355377197, 132.0313262939453, 51.99685287475586)">
            <path d="m45.02 80.11c13.02 0 28.03-3.19 42.26-8.97 7.92-3.22 15.11-7.06 21.14-11.23v-14.6c0-1.64-1.33-2.96-2.96-2.96H39.61c-1.63 0-2.96 1.33-2.96 2.96v34.3c2.59.33 5.39.51 8.37.51Z"
                  fill="rgba(120,120,120,1)"/>
            <path d="m84.61 85.22c-5.16 2.1-10.45 3.86-15.74 5.29h36.59c1.64 0 2.96-1.33 2.96-2.96v-15.3c-6.74 4.87-14.82 9.32-23.81 12.98Z"
                  fill="rgba(120,120,120,1)"/>
        </g>
        <g fill="rgba(120,120,120,1)"
           transform="matrix(1.7499735355377197, 0, 0, 1.7499735355377197, 132.0313262939453, 51.99685287475586)"
        >
            <path d="m96.19 47.7h4.94c.5 0 .9.4.9.9v4.94c0 .8-.97 1.21-1.54.64l-4.94-4.94c-.57-.57-.17-1.54.64-1.54Z"
                  fill="rgba(120,120,120,1)"/>
            <path d="m100.64 61.44h0c-.81.81-2.13.81-2.94 0l-9.77-9.77c-.81-.81-.81-2.13 0-2.94h0c.81-.81 2.13-.81 2.94 0l9.77 9.77c.81.81.81 2.13 0 2.94Z"
                  fill="rgba(120,120,120,1)"/>
        </g>
        <path d="m88.4 73.92c-30.7 12.48-62.85 12.22-71.8-.6-5.35-7.66-1.19-18.07 9.59-27.87v-1.92C8.72 55.69.81 70.3 8.02 80.63c9.77 13.98 43.55 14.79 75.46 1.82 21.94-8.92 37.29-22.04 41.55-33.91-6.71 9.14-19.66 18.49-36.63 25.38Z"
              fill="rgba(28,150,96,1)"
              transform="matrix(1.7499735355377197, 0, 0, 1.7499735355377197, 132.0313262939453, 51.99685287475586)"
        />
        <path class="cls-1"
              d="m118.28 55.92c-7.24 6.62-17.48 12.96-29.87 18-30.7 12.48-62.85 12.22-71.8-.6-5.35-7.66-1.19-18.07 9.59-27.87v-1.92c-1.08.75-2.12 1.51-3.12 2.27-11.68 10.63-16.12 22.16-10.13 30.73 9.77 13.98 43.55 14.79 75.46 1.82 9.83-4 18.34-8.84 25.12-14.04 4.74-4.32 8.27-8.79 10.39-13.15-1.7 1.6-3.59 3.19-5.63 4.75Z"
              opacity=".41" fill="rgba(28,150,96,1)"
              transform="matrix(1.7499735355377197, 0, 0, 1.7499735355377197, 132.0313262939453, 51.99685287475586)"
        />
        <path fill="rgba(28,150,96,1)"
              transform="matrix(1.7499735355377197, 0, 0, 1.7499735355377197, 132.0313262939453, 51.99685287475586)"
              d="M136.32 41.55L129.79 44.39L130.48 51.47L125.76 46.14L119.24 48.98L122.84 42.85L118.13 37.52L125.07 39.06L128.68 32.93L129.37 40.01L136.32 41.55Z"
        />
    </g>
    <path fill="rgba(28,150,96,1)"
          transform="matrix(1.2506011724472046, 0, 0, 1.2506011724472046, 255.69984436035156, 315.7671813964844)"
          d="M-145.92-23.568L-145.92-0.048L-152.64-0.048L-161.76-19.968L-163.68-19.968L-162.24-17.568L-162.24-0.048L-166.08-0.048L-166.08-23.568L-159.312-23.568L-150.24-3.648L-148.32-3.648L-149.76-6.048L-149.76-23.568L-145.92-23.568ZM-122.16-13.44L-122.16 0L-125.52 0L-125.52-2.448L-128.4 0L-135.6 0Q-136.992 0 -137.976-0.984Q-138.96-1.968 -138.96-3.36L-138.96-3.36L-138.96-6.72Q-138.96-8.112 -137.976-9.096Q-136.992-10.08 -135.6-10.08L-135.6-10.08L-126-10.08L-128.88-7.248L-135.6-7.248L-135.6-2.88L-125.52-2.88L-125.52-13.92L-138.96-13.92L-136.08-16.8L-125.52-16.8Q-124.128-16.8 -123.144-15.816Q-122.16-14.832 -122.16-13.44L-122.16-13.44ZM-112.08-16.8L-101.04-16.8L-103.968-13.92L-112.08-13.92L-112.08-2.88L-102-2.88L-102 0L-112.08 0Q-113.472 0 -114.456-0.984Q-115.44-1.968 -115.44-3.36L-115.44-3.36L-115.44-13.44Q-115.44-14.832 -114.456-15.816Q-113.472-16.8 -112.08-16.8L-112.08-16.8ZM-80.4-13.44L-80.4 0L-83.76 0L-83.76-13.92L-93.84-13.92L-93.84 0L-97.2 0L-97.2-24.48L-93.84-27.84L-93.84-14.4L-91.44-16.8L-83.76-16.8Q-82.368-16.8 -81.384-15.816Q-80.4-14.832 -80.4-13.44L-80.4-13.44ZM-60.24-13.44L-60.24-10.08L-63.6-10.08L-63.6-13.92L-70.32-13.92L-70.32 0L-73.68 0L-73.68-16.8L-70.32-16.8L-70.32-14.4L-67.92-16.8L-63.6-16.8Q-62.208-16.8 -61.224-15.816Q-60.24-14.832 -60.24-13.44L-60.24-13.44ZM-51.6-23.52L-51.6-19.68L-54.96-19.68L-54.96-23.52L-51.6-23.52ZM-51.6-17.76L-51.6 0L-54.96 0L-54.96-14.4L-51.6-17.76ZM-41.52-16.8L-30.48-16.8L-33.408-13.92L-41.52-13.92L-41.52-2.88L-31.44-2.88L-31.44 0L-41.52 0Q-42.912 0 -43.896-0.984Q-44.88-1.968 -44.88-3.36L-44.88-3.36L-44.88-13.44Q-44.88-14.832 -43.896-15.816Q-42.912-16.8 -41.52-16.8L-41.52-16.8ZM-9.84-13.44L-9.84 0L-13.2 0L-13.2-13.92L-23.28-13.92L-23.28 0L-26.64 0L-26.64-24.48L-23.28-27.84L-23.28-14.4L-20.88-16.8L-13.2-16.8Q-11.808-16.8 -10.824-15.816Q-9.84-14.832 -9.84-13.44L-9.84-13.44ZM 7.92-2.88L 7.92 0L 1.2 0Q-0.192 0 -1.176-0.984Q-2.16-1.968 -2.16-3.36L-2.16-3.36L-2.16-13.92L-6.96-13.92L-4.08-16.8L-2.16-16.8L-2.16-20.16L 1.2-23.52L 1.2-16.8L 7.92-16.8L 7.92-13.92L 1.2-13.92L 1.2-2.88L 7.92-2.88ZM 29.52-2.88L 29.52 0L 16.08 0Q 14.688 0  13.704-0.984Q 12.72-1.968  12.72-3.36L 12.72-3.36L 12.72-13.44Q 12.72-14.832  13.704-15.816Q 14.688-16.8  16.08-16.8L 16.08-16.8L 26.16-16.8Q 27.552-16.8  28.536-15.816Q 29.52-14.832  29.52-13.44L 29.52-13.44L 29.52-10.08L 26.16-6.72L 16.56-6.72L 19.44-9.6L 26.16-9.6L 26.16-13.92L 16.08-13.92L 16.08-2.88L 29.52-2.88ZM 51.6-13.44L 51.6 0L 48.24 0L 48.24-13.92L 38.16-13.92L 38.16 0L 34.8 0L 34.8-16.8L 38.16-16.8L 38.16-14.4L 40.56-16.8L 48.24-16.8Q 49.632-16.8  50.616-15.816Q 51.6-14.832  51.6-13.44L 51.6-13.44ZM 75.12-13.44L 75.12-3.36Q 75.12-1.968  74.136-0.984Q 73.152 0  71.76 0L 71.76 0L 61.68 0L 61.68 10.08L 58.32 10.08L 58.32-16.8L 61.68-16.8L 61.68-14.4L 64.08-16.8L 71.76-16.8Q 73.152-16.8  74.136-15.816Q 75.12-14.832  75.12-13.44L 75.12-13.44ZM 64.08-2.88L 71.76-2.88L 71.76-13.92L 61.68-13.92L 61.68-0.48L 64.08-2.88ZM 98.64-13.44L 98.64-3.36Q 98.64-1.968  97.656-0.984Q 96.672 0  95.28 0L 95.28 0L 85.2 0Q 83.808 0  82.824-0.984Q 81.84-1.968  81.84-3.36L 81.84-3.36L 81.84-13.44Q 81.84-14.832  82.824-15.816Q 83.808-16.8  85.2-16.8L 85.2-16.8L 95.28-16.8Q 96.672-16.8  97.656-15.816Q 98.64-14.832  98.64-13.44L 98.64-13.44ZM 85.2-2.88L 95.28-2.88L 95.28-13.92L 85.2-13.92L 85.2-2.88ZM 118.8-13.44L 118.8-10.08L 115.44-10.08L 115.44-13.92L 108.72-13.92L 108.72 0L 105.36 0L 105.36-16.8L 108.72-16.8L 108.72-14.4L 111.12-16.8L 115.44-16.8Q 116.832-16.8  117.816-15.816Q 118.8-14.832  118.8-13.44L 118.8-13.44ZM 135.12-2.88L 135.12 0L 128.4 0Q 127.008 0  126.024-0.984Q 125.04-1.968  125.04-3.36L 125.04-3.36L 125.04-13.92L 120.24-13.92L 123.12-16.8L 125.04-16.8L 125.04-20.16L 128.4-23.52L 128.4-16.8L 135.12-16.8L 135.12-13.92L 128.4-13.92L 128.4-2.88L 135.12-2.88ZM 156-13.44L 156 0L 152.64 0L 152.64-2.448L 149.76 0L 142.56 0Q 141.168 0  140.184-0.984Q 139.2-1.968  139.2-3.36L 139.2-3.36L 139.2-6.72Q 139.2-8.112  140.184-9.096Q 141.168-10.08  142.56-10.08L 142.56-10.08L 152.16-10.08L 149.28-7.248L 142.56-7.248L 142.56-2.88L 152.64-2.88L 152.64-13.92L 139.2-13.92L 142.08-16.8L 152.64-16.8Q 154.032-16.8  155.016-15.816Q 156-14.832  156-13.44L 156-13.44ZM 166.56-27.84L 166.56 0L 163.2 0L 163.2-24.48L 166.56-27.84Z"/>
</svg>